<?xml version="1.0" encoding="iso-8859-1"?>
<!-- Generator: Adobe Illustrator 19.0.0, SVG Export Plug-In . SVG Version: 6.00 Build 0)  -->
<svg version="1.1" id="Capa_1" xmlns="http://www.w3.org/2000/svg" xmlns:xlink="http://www.w3.org/1999/xlink" x="0px" y="0px"
	 viewBox="0 0 512 512" style="enable-background:new 0 0 512 512;" xml:space="preserve">
<path style="fill:#E53935;" d="M330.667,106.667H181.333c-58.411,0-170.667,81.067-170.667,192C10.667,414.315,123.029,512,256,512
	s245.333-97.685,245.333-213.333C501.333,187.285,399.403,106.667,330.667,106.667z"/>
<path style="fill:#D32F2F;" d="M256,469.333c-107.968,0-202.667-79.744-202.667-170.667C53.333,292.776,58.109,288,64,288
	s10.667,4.776,10.667,10.667C74.667,378.219,159.403,448,256,448c5.891,0,10.667,4.776,10.667,10.667
	C266.667,464.558,261.891,469.333,256,469.333z"/>
<path style="fill:#4CAF50;" d="M371.925,145.963C361.813,121.6,322.624,85.333,256,85.333
	c-47.24-0.694-91.375,23.468-116.245,63.637c-3.398,5.993-2.536,13.494,2.133,18.56c8.533,8.533,22.016,3.499,44.331-4.949
	c12.401-5.099,25.202-9.166,38.272-12.16c1.259,21.419,7.04,62.912,31.509,62.912c24.469,0,30.251-41.493,31.595-62.912
	c13.07,2.994,25.871,7.061,38.272,12.16c22.315,8.533,35.797,13.504,44.331,4.949C375.383,161.474,376.08,152.768,371.925,145.963z"
	/>
<path style="fill:#388E3C;" d="M256,106.667c-5.891,0-10.667-4.776-10.667-10.667c0.745-52.708,43.292-95.255,96-96
	C347.224,0,352,4.776,352,10.667s-4.776,10.667-10.667,10.667C300.336,21.907,267.24,55.003,266.667,96
	C266.667,101.891,261.891,106.667,256,106.667z"/>
<path d="M256,512c-132.971,0-245.333-97.685-245.333-213.333c0-110.933,112.235-192,170.667-192c5.891,0,10.667,4.776,10.667,10.667
	S187.224,128,181.333,128C138.261,128,32,196.011,32,298.667c0,102.272,104.683,192,224,192s224-89.728,224-192
	C480,199.659,390.805,128,330.667,128c-5.891,0-10.667-4.776-10.667-10.667s4.776-10.667,10.667-10.667
	c68.736,0,170.667,80.619,170.667,192C501.333,414.315,388.971,512,256,512z"/>
<path d="M256,469.333c-107.968,0-202.667-79.744-202.667-170.667C53.333,292.776,58.109,288,64,288s10.667,4.776,10.667,10.667
	C74.667,378.219,159.403,448,256,448c5.891,0,10.667,4.776,10.667,10.667C266.667,464.558,261.891,469.333,256,469.333z"/>
<path d="M256,213.333c-24.469,0-30.251-41.493-31.595-62.912c-13.07,2.993-25.871,7.06-38.272,12.16
	c-22.315,8.533-35.755,13.504-44.352,4.949c-4.628-5.093-5.446-12.588-2.027-18.56C164.625,108.801,208.76,84.64,256,85.333
	c66.603,0,105.792,36.267,115.904,60.608c5.077,12.245,1.109,18.795-1.685,21.611c-8.533,8.533-22.037,3.477-44.352-4.949
	c-12.401-5.1-25.202-9.167-38.272-12.16C286.251,171.84,280.469,213.333,256,213.333z M234.667,128
	c5.891,0,10.667,4.776,10.667,10.667c-1.403,18.565,2.574,37.141,11.456,53.504c7.314-16.853,10.692-35.151,9.877-53.504
	c0-5.891,4.776-10.667,10.667-10.667c19.38,1.72,38.336,6.666,56.085,14.635c4.843,1.835,10.667,4.011,15.509,5.632
	c-22.31-28.228-57.013-43.763-92.928-41.6c-34.267,0.428-66.806,15.116-89.792,40.533c4.117-1.429,8.533-3.115,12.373-4.565
	C196.331,134.666,215.287,129.72,234.667,128z"/>
<path d="M256,106.667c-5.891,0-10.667-4.776-10.667-10.667c0.734-52.712,43.288-95.266,96-96C347.224,0,352,4.776,352,10.667
	s-4.776,10.667-10.667,10.667C300.336,21.907,267.24,55.003,266.667,96C266.667,101.891,261.891,106.667,256,106.667z"/>
<g>
</g>
<g>
</g>
<g>
</g>
<g>
</g>
<g>
</g>
<g>
</g>
<g>
</g>
<g>
</g>
<g>
</g>
<g>
</g>
<g>
</g>
<g>
</g>
<g>
</g>
<g>
</g>
<g>
</g>
</svg>
