<?xml version="1.0" encoding="iso-8859-1"?>
<!-- Generator: Adobe Illustrator 19.0.0, SVG Export Plug-In . SVG Version: 6.00 Build 0)  -->
<svg version="1.1" id="Capa_1" xmlns="http://www.w3.org/2000/svg" xmlns:xlink="http://www.w3.org/1999/xlink" x="0px" y="0px"
	 viewBox="0 0 511.998 511.998" style="enable-background:new 0 0 511.998 511.998;" xml:space="preserve">
<path style="fill:#F8D5AB;" d="M367.113,79.125c-3.993-7.056-9.241-13.237-15.504-17.744l-60.501-43.54
	c-19.31-13.897-50.907-13.897-70.216,0l-60.501,43.54c-6.263,4.507-11.512,10.688-15.504,17.744H367.113z"/>
<path style="fill:#FF3D6C;" d="M148.942,188.446c11.557,10.669,24.478,19.438,38.325,26.154h137.464
	c13.848-6.717,26.769-15.485,38.325-26.154c29.07-26.837,47.087-63.311,50.734-102.702c0.155-1.698-0.416-3.383-1.575-4.642
	c-1.16-1.26-2.802-1.977-4.523-1.977H104.307c-1.721,0-3.363,0.717-4.523,1.977c-1.159,1.259-1.73,2.943-1.573,4.642
	C101.855,125.134,119.871,161.607,148.942,188.446z"/>
<path style="opacity:0.1;enable-background:new    ;" d="M148.942,188.446c11.557,10.669,24.478,19.438,38.325,26.154h38.202
	c-13.844-6.715-26.759-15.487-38.313-26.154c-29.07-26.837-47.087-63.311-50.732-102.702c-0.157-1.698,0.414-3.383,1.573-4.642
	c1.16-1.26,2.802-1.977,4.523-1.977h-38.215c-1.721,0-3.363,0.717-4.523,1.977c-1.159,1.259-1.73,2.943-1.573,4.642
	C101.855,125.134,119.871,161.607,148.942,188.446z"/>
<path style="fill:#7B7DAA;" d="M238.855,272.822h34.288c6.805,0,13.503,0.46,20.068,1.337v-28.023h-74.424v28.023
	C225.353,273.282,232.051,272.822,238.855,272.822z"/>
<path style="fill:#299FBC;" d="M95.581,504.498c-3.382,0-6.123-2.715-6.123-6.065v-77.629c0-81.597,67.02-147.982,149.397-147.982
	h34.288c82.377,0,149.396,66.385,149.396,147.982v77.629c0,3.35-2.74,6.065-6.123,6.065H95.581z"/>
<path style="fill:#008DAF;" d="M147.089,504.498h217.82V304.11c-25.341-19.596-57.2-31.288-91.766-31.288h-34.287
	c-34.568,0-66.426,11.692-91.767,31.288L147.089,504.498L147.089,504.498z"/>
<path style="opacity:0.1;enable-background:new    ;" d="M116.95,498.433v-77.629c0-81.597,67.02-147.982,149.397-147.982h-27.49
	c-82.377,0-149.397,66.385-149.397,147.982v77.629c0,3.35,2.741,6.065,6.123,6.065h27.49
	C119.691,504.498,116.95,501.783,116.95,498.433z"/>
<ellipse style="fill:#FFFFFF;" cx="256" cy="375.95" rx="69.371" ry="68.711"/>
<path style="opacity:0.1;enable-background:new    ;" d="M208.275,375.949c0-34.301,25.377-62.727,58.547-67.875
	c-3.527-0.547-7.141-0.837-10.823-0.837c-38.311,0-69.369,30.763-69.369,68.713s31.059,68.712,69.369,68.713
	c3.683,0,7.296-0.29,10.823-0.838C233.652,438.675,208.275,410.251,208.275,375.949z"/>
<ellipse style="fill:#FF3D6C;" cx="256" cy="375.95" rx="16.412" ry="16.258"/>
<path style="fill:#008DAF;" d="M424.554,241.137c0,2.75-2.25,5.001-5.001,5.001H92.445c-2.75,0-5.001-2.25-5.001-5.001v-21.535
	c0-2.75,2.25-5.001,5.001-5.001h327.109c2.75,0,5.001,2.25,5.001,5.001v21.535H424.554z"/>
<path style="opacity:0.1;enable-background:new    ;" d="M125.921,241.137v-21.535c0-2.75,2.25-5.001,5.001-5.001H92.445
	c-2.75,0-5.001,2.25-5.001,5.001v21.535c0,2.75,2.25,5.001,5.001,5.001h38.478C128.172,246.138,125.921,243.887,125.921,241.137z"/>
<path d="M179.129,375.949c0,42.024,34.485,76.213,76.87,76.214c13.647-0.001,27.053-3.594,38.77-10.391
	c3.584-2.079,4.803-6.669,2.724-10.253s-6.668-4.802-10.253-2.724c-9.432,5.472-20.235,8.364-31.241,8.365
	c-34.113-0.001-61.868-27.46-61.868-61.212s27.754-61.211,61.868-61.212c34.113,0,61.868,27.459,61.868,61.212
	c0,11.362-3.168,22.451-9.158,32.068c-2.19,3.517-1.116,8.143,2.399,10.334c3.516,2.19,8.144,1.117,10.333-2.399
	c7.477-12,11.429-25.832,11.429-40.001c0-42.025-34.484-76.214-76.87-76.214C213.612,299.735,179.129,333.925,179.129,375.949z"/>
<path d="M288.171,344.082c-2.915-2.943-7.663-2.966-10.609-0.051l-10.81,10.708c-3.236-1.625-6.888-2.547-10.756-2.547
	c-13.185,0-23.911,10.657-23.911,23.756c0,3.844,0.929,7.474,2.567,10.691c-2.26,2.929-2.066,7.148,0.609,9.85
	c1.467,1.481,3.397,2.222,5.329,2.222c1.625,0,3.248-0.53,4.598-1.58c3.25,1.643,6.921,2.576,10.81,2.576
	c13.186,0,23.913-10.658,23.913-23.758c0-3.816-0.915-7.421-2.531-10.62l10.741-10.639
	C291.065,351.774,291.087,347.025,288.171,344.082z M255.999,384.704c-4.913,0-8.91-3.928-8.91-8.756
	c0-2.324,0.918-4.514,2.584-6.165c1.686-1.669,3.933-2.589,6.33-2.589c4.911,0,8.906,3.928,8.906,8.754
	C264.91,380.776,260.912,384.704,255.999,384.704z"/>
<path d="M419.553,253.639c6.894,0,12.502-5.608,12.502-12.502v-21.535c0-6.894-5.608-12.502-12.502-12.502h-67.573
	c5.621-4.017,11.023-8.396,16.164-13.142c30.433-28.096,49.296-66.282,53.115-107.53c0.348-3.802-0.938-7.594-3.528-10.406
	c-2.572-2.794-6.232-4.397-10.041-4.397h-36.365c-4.256-6.538-9.434-12.084-15.336-16.332l-60.501-43.54
	c-21.774-15.672-57.206-15.671-78.98,0l-60.501,43.54c-5.903,4.248-11.081,9.794-15.336,16.332h-36.365
	c-3.809,0-7.468,1.603-10.042,4.397c-2.592,2.814-3.877,6.611-3.524,10.414c3.816,41.24,22.679,79.426,53.113,107.522
	c5.141,4.746,10.543,9.125,16.164,13.142H92.445c-6.894,0-12.502,5.608-12.502,12.502v21.535c0,6.894,5.608,12.502,12.502,12.502
	h118.842v14.087c-73.414,12.948-129.33,76.663-129.33,153.078v77.629c0,7.48,6.112,13.565,13.624,13.565h320.834
	c7.512,0,13.624-6.085,13.624-13.565v-77.629c0-22.669-4.837-44.538-14.374-65c-1.75-3.754-6.21-5.38-9.969-3.63
	c-3.755,1.75-5.38,6.213-3.63,9.969c8.605,18.462,12.97,38.198,12.97,58.661v76.193H372.41V320.57
	c5.374,5.199,10.367,10.833,14.892,16.892c2.479,3.319,7.18,4.001,10.499,1.521s4-7.179,1.521-10.499
	c-14.307-19.154-33.131-35.04-54.44-45.938c-13.847-7.083-28.793-12.064-44.169-14.788v-14.118H419.553z M154.031,182.934
	c-27.318-25.22-44.395-59.368-48.197-96.307h196.173c4.144,0,7.501-3.359,7.501-7.501s-3.358-7.501-7.501-7.501H159.9
	c1.554-1.539,3.181-2.937,4.872-4.155l60.501-43.54c16.654-11.987,44.795-11.987,61.453,0l60.501,43.54
	c1.691,1.217,3.318,2.615,4.872,4.155H333.01c-4.144,0-7.501,3.359-7.501,7.501s3.358,7.501,7.501,7.501h73.157
	c-3.805,36.941-20.881,71.088-48.199,96.307c-10.583,9.771-22.366,17.871-34.981,24.165H189.01
	C176.395,200.805,164.614,192.704,154.031,182.934z M139.588,496.997H96.96v-76.193c0-39.237,16.34-74.762,42.628-100.275V496.997z
	 M357.408,307.933v189.064H154.59V307.85c23.581-17.288,52.737-27.526,84.265-27.526h34.288
	C303.669,280.323,333.22,290.265,357.408,307.933z M226.289,265.821v-12.182h59.422v12.201c-4.179-0.335-8.37-0.519-12.567-0.519
	h-34.287C234.626,265.321,230.435,265.494,226.289,265.821z M94.945,238.637v-16.535h322.109v16.535H94.945z"/>
<path d="M294.799,467.173H217.2c-4.144,0-7.501,3.359-7.501,7.501c0,4.143,3.358,7.501,7.501,7.501h77.599
	c4.144,0,7.501-3.359,7.501-7.501C302.301,470.531,298.942,467.173,294.799,467.173z"/>
<path d="M233.966,28.132c-1.979,0-3.911,0.8-5.31,2.2c-1.391,1.39-2.191,3.331-2.191,5.301c0,1.98,0.8,3.911,2.191,5.311
	c1.399,1.39,3.331,2.19,5.31,2.19c1.97,0,3.901-0.8,5.301-2.19c1.4-1.4,2.2-3.331,2.2-5.311c0-1.97-0.8-3.911-2.2-5.301
	C237.866,28.932,235.935,28.132,233.966,28.132z"/>
<path d="M255.999,44.885c-1.98,0-3.911,0.8-5.301,2.19c-1.4,1.4-2.2,3.331-2.2,5.311c0,1.97,0.8,3.911,2.2,5.301
	c1.39,1.4,3.331,2.2,5.301,2.2c1.97,0,3.911-0.8,5.301-2.2c1.4-1.4,2.2-3.331,2.2-5.301c0-1.97-0.8-3.911-2.2-5.311
	C259.91,45.685,257.979,44.885,255.999,44.885z"/>
<path d="M278.043,28.132c-1.98,0-3.911,0.8-5.312,2.2c-1.399,1.39-2.199,3.331-2.199,5.301c0,1.98,0.8,3.911,2.199,5.301
	c1.4,1.4,3.331,2.2,5.312,2.2c1.97,0,3.901-0.8,5.301-2.2c1.4-1.39,2.2-3.331,2.2-5.301c0-1.97-0.8-3.901-2.2-5.301
	C281.942,28.932,280.013,28.132,278.043,28.132z"/>
<path d="M300.075,44.885c-1.97,0-3.91,0.8-5.301,2.19c-1.399,1.4-2.2,3.341-2.2,5.311c0,1.97,0.801,3.911,2.2,5.301
	c1.4,1.4,3.331,2.2,5.301,2.2c1.971,0,3.901-0.8,5.302-2.2c1.399-1.39,2.199-3.331,2.199-5.301c0-1.97-0.8-3.911-2.199-5.311
	C303.986,45.685,302.047,44.885,300.075,44.885z"/>
<path d="M211.922,44.885c-1.97,0-3.9,0.8-5.301,2.19c-1.4,1.4-2.2,3.331-2.2,5.311c0,1.97,0.8,3.901,2.2,5.301
	c1.4,1.4,3.331,2.2,5.301,2.2c1.98,0,3.911-0.8,5.301-2.2c1.4-1.4,2.2-3.331,2.2-5.301c0-1.98-0.8-3.911-2.2-5.311
	C215.833,45.685,213.902,44.885,211.922,44.885z"/>
<g>
</g>
<g>
</g>
<g>
</g>
<g>
</g>
<g>
</g>
<g>
</g>
<g>
</g>
<g>
</g>
<g>
</g>
<g>
</g>
<g>
</g>
<g>
</g>
<g>
</g>
<g>
</g>
<g>
</g>
</svg>
